<?xml version="1.0" encoding="UTF-8"?>
<svg width="20px" height="20px" viewBox="0 0 20 20" version="1.1" xmlns="http://www.w3.org/2000/svg" xmlns:xlink="http://www.w3.org/1999/xlink">
    <!-- Generator: Sketch 44 (41411) - http://www.bohemiancoding.com/sketch -->
    <title>icon_Timer</title>
    <desc>Created with Sketch.</desc>
    <defs></defs>
    <g id="Page-1" stroke="none" stroke-width="1" fill="none" fill-rule="evenodd" opacity="0.795417444">
        <g id="3D" transform="translate(-1020.000000, -154.000000)" fill-rule="nonzero" fill="#FFFFFF">
            <g id="Group-2" transform="translate(955.000000, 150.000000)">
                <g id="icon_Timer" transform="translate(65.000000, 4.000000)">
                    <path d="M11.0099889,4.48390677 C14.6059933,4.48390677 17.5138735,7.3917869 17.5138735,10.9877913 C17.5138735,14.5837958 14.6059933,17.4916759 11.0099889,17.4916759 C7.41398446,17.4916759 4.50610433,14.5837958 4.50610433,10.9877913 C4.50610433,7.3917869 7.41398446,4.48390677 11.0099889,4.48390677 Z M11.0099889,12.7413984 C11.9866815,12.7413984 12.763596,11.9644839 12.763596,10.9877913 C12.763596,10.6770255 12.6970033,10.4106548 12.5416204,10.1442841 L14.3396226,8.34628191 C14.5394007,8.14650388 14.5394007,7.83573807 14.3396226,7.63596004 C14.1398446,7.43618202 13.8290788,7.43618202 13.6293008,7.63596004 L11.809101,9.45615982 C11.5649279,9.32297447 11.2763596,9.2563818 10.9877913,9.2563818 C10.0110988,9.2563818 9.23418424,10.0332963 9.23418424,11.0099889 C9.2563818,11.9644839 10.0554939,12.7413984 11.0099889,12.7413984 Z M11.0099889,10.2552719 C11.4317425,10.2552719 11.7647059,10.5882353 11.7647059,11.0099889 C11.7647059,11.4317425 11.4317425,11.7647059 11.0099889,11.7647059 C10.5882353,11.7647059 10.2552719,11.4317425 10.2552719,11.0099889 C10.2552719,10.5882353 10.6104329,10.2552719 11.0099889,10.2552719 Z M18.1576027,5.52719201 C19.3118757,7.03662597 20,8.92341842 20,10.9877913 C20,15.9600444 15.982242,19.9778024 11.0099889,19.9778024 C7.28079911,19.9778024 4.08435072,17.7136515 2.73029967,14.472808 L4.39511654,14.472808 C5.66037736,16.8479467 8.14650388,18.4683685 11.0321865,18.4683685 C15.1609323,18.4683685 18.5349612,15.1165372 18.5349612,10.9655938 C18.5349612,6.81465039 15.1609323,3.48501665 11.0099889,3.48501665 C8.34628191,3.48501665 5.99334073,4.88346282 4.66148724,6.99223085 L2.95227525,6.99223085 C4.32852386,4.23973363 7.05882353,2.2863485 10.2552719,2.0199778 L10.2552719,1.4872364 L9.01220866,1.4872364 C8.59045505,1.4872364 8.25749168,1.15427303 8.25749168,0.732519423 C8.25749168,0.310765816 8.59045505,0 9.01220866,0 L13.0077691,0 C13.4295228,0 13.7624861,0.332963374 13.7624861,0.754716981 C13.7624861,1.17647059 13.4295228,1.50943396 13.0077691,1.50943396 L11.7647059,1.50943396 L11.7647059,2.04217536 C13.1409545,2.15316315 14.4284129,2.57491676 15.5826859,3.24084351 L15.8934517,2.86348502 C16.2486127,2.44173141 16.8701443,2.39733629 17.2697003,2.73029967 L18.4017758,3.68479467 C18.8235294,4.0399556 18.8679245,4.66148724 18.5127636,5.08324084 L18.1576027,5.52719201 Z M2.26415094,8.74583796 L0.51054384,8.74583796 C0.221975583,8.74583796 0,8.52386238 0,8.23529412 L0,8.23529412 C0,7.96892342 0.221975583,7.74694784 0.51054384,7.74694784 L2.26415094,7.74694784 C2.5527192,7.74694784 2.77469478,7.96892342 2.77469478,8.25749168 C2.77469478,8.52386238 2.5527192,8.74583796 2.26415094,8.74583796 Z M1.26526082,10.7436182 C1.26526082,10.4772475 1.4872364,10.2552719 1.77580466,10.2552719 L3.52941176,10.2552719 C3.81798002,10.2552719 4.0399556,10.4772475 4.0399556,10.7436182 C4.0399556,11.0099889 3.81798002,11.2319645 3.52941176,11.2319645 L1.77580466,11.2319645 C1.4872364,11.2319645 1.26526082,11.0099889 1.26526082,10.7436182 Z M0.532741398,12.4750277 L2.2863485,12.4750277 C2.57491676,12.4750277 2.79689234,12.6970033 2.79689234,12.9855716 C2.79689234,13.2519423 2.57491676,13.4961154 2.2863485,13.4961154 L0.532741398,13.4961154 C0.244173141,13.4961154 0.0221975583,13.2741398 0.0221975583,12.9855716 C0.0221975583,12.7192009 0.244173141,12.4750277 0.532741398,12.4750277 Z" id="Shape"></path>
                </g>
            </g>
        </g>
    </g>
</svg>